HIERARCHY
ROOT Hips
{
	OFFSET 0.00000 0.00000 0.00000
	CHANNELS 6 Xposition Yposition Zposition Zrotation Yrotation Xrotation 
	JOINT LHipJoint
	{
		OFFSET 0 0 0
		CHANNELS 3 Zrotation Yrotation Xrotation
		JOINT LeftHip
		{
			OFFSET 1.41496 -1.84582 0.78394
			CHANNELS 3 Zrotation Yrotation Xrotation
			JOINT LeftKnee
			{
				OFFSET 2.58040 -7.08960 0.00000
				CHANNELS 3 Zrotation Yrotation Xrotation
				JOINT LeftAnkle
				{
					OFFSET 2.64719 -7.27309 0.00000
					CHANNELS 3 Zrotation Yrotation Xrotation
					JOINT LeftToe
					{
						OFFSET 0.20718 -0.56921 2.20259
						CHANNELS 3 Zrotation Yrotation Xrotation
						End Site
						{
							OFFSET 0.00000 -0.00000 1.14243
						}
					}
				}
			}
		}
	}
	JOINT RHipJoint
	{
		OFFSET 0 0 0
		CHANNELS 3 Zrotation Yrotation Xrotation
		JOINT RightHip
		{
			OFFSET -1.40551 -1.84582 0.78394
			CHANNELS 3 Zrotation Yrotation Xrotation
			JOINT RightKnee
			{
				OFFSET -2.56572 -7.04926 0.00000
				CHANNELS 3 Zrotation Yrotation Xrotation
				JOINT RightAnkle
				{
					OFFSET -2.57974 -7.08778 0.00000
					CHANNELS 3 Zrotation Yrotation Xrotation
					JOINT RightToe
					{
						OFFSET -0.26704 -0.73369 2.20815
						CHANNELS 3 Zrotation Yrotation Xrotation
						End Site
						{
							OFFSET -0.00000 -0.00000 1.16246
						}
					}
				}
			}
		}
	}
	JOINT lowerback
	{
		OFFSET 0 0 0
		CHANNELS 3 Zrotation Yrotation Xrotation
		JOINT Chest
		{
			OFFSET -0.04690 2.05196 -0.07017
			CHANNELS 3 Zrotation Yrotation Xrotation
			JOINT Chest2
			{
				OFFSET 0.04085 2.05260 0.00800
				CHANNELS 3 Zrotation Yrotation Xrotation
				JOINT lowerneck
				{
					OFFSET 0 0 0
					CHANNELS 3 Zrotation Yrotation Xrotation
					JOINT Neck
					{
						OFFSET -0.03582 1.80995 0.19301
						CHANNELS 3 Zrotation Yrotation Xrotation
						JOINT Head
						{
							OFFSET 0.00952 1.80195 -0.36389
							CHANNELS 3 Zrotation Yrotation Xrotation
							End Site
							{
								OFFSET 0.00392 1.85062 -0.14494
							}
						}
					}
				}
				JOINT LeftCollar
				{
					OFFSET 0 0 0
					CHANNELS 3 Zrotation Yrotation Xrotation
					JOINT LeftShoulder
					{
						OFFSET 3.55224 1.39726 -0.13667
CHANNELS 3 Zrotation Xrotation Yrotation
						JOINT LeftElbow
						{
OFFSET 0 -5.145070 -0.000000
CHANNELS 3 Zrotation Xrotation Yrotation
							JOINT LeftWrist
							{
OFFSET 0 -3.506460 0.000000
CHANNELS 3 Zrotation Xrotation Yrotation
								JOINT lhand
								{
									OFFSET 0 0 0
CHANNELS 3 Zrotation Xrotation Yrotation
									JOINT LFingers
									{
OFFSET 0 -0.629970 0.000000
CHANNELS 3 Zrotation Xrotation Yrotation
										End Site
										{
OFFSET 0 -0.507900 0.000000
										}
									}
								}
								JOINT LThumb
								{
OFFSET 0 0.000000 0.000000
CHANNELS 3 Zrotation Xrotation Yrotation
									End Site
									{
OFFSET 0 -0.515650 0.515650
									}
								}
							}
						}
					}
				}
				JOINT RightCollar
				{
					OFFSET 0 0 0
					CHANNELS 3 Zrotation Yrotation Xrotation
					JOINT RightShoulder
					{
						OFFSET -3.06467 1.61290 -0.28813
CHANNELS 3 Zrotation Xrotation Yrotation
						JOINT RightElbow
						{
OFFSET 0 -5.232000 -0.000000
CHANNELS 3 Zrotation Xrotation Yrotation
							JOINT RightWrist
							{
OFFSET 0 -3.656410 0.000000
CHANNELS 3 Zrotation Xrotation Yrotation
								JOINT rhand
								{
									OFFSET 0 0 0
CHANNELS 3 Zrotation Xrotation Yrotation
									JOINT RFingers
									{
OFFSET 0 -0.656810 0.000000
CHANNELS 3 Zrotation Xrotation Yrotation
										End Site
										{
OFFSET 0 -0.529530 0.000000
										}
									}
								}
								JOINT RThumb
								{
OFFSET 0 0.000000 0.000000
CHANNELS 3 Zrotation Xrotation Yrotation
									End Site
									{
OFFSET 0 -0.537620 0.537620
									}
								}
							}
						}
					}
				}
			}
		}
	}
}
MOTION
Frames: 11
Frame Time: 0.008333333333333333
1.014126 17.821675 -16.044645 178.227806 -4.440987 -172.883017 0.000000 0.000000 0.000000 -20.564427 -13.151129 -15.139313 4.283224 12.528097 37.626648 1.411824 -8.851815 -21.286270 0.257964 3.267833 9.025221 0.000000 0.000000 0.000000 22.625188 6.163773 -12.525514 -2.993710 -10.684883 31.224422 -1.142891 -5.844403 -23.095362 -0.085947 1.891282 -5.205351 -1.358213 -1.241545 1.056341 2.243712 -1.801101 -4.276320 3.186890 -0.870569 -4.898801 -2.426144 -1.554175 -16.995043 -0.225921 -1.688583 17.952950 0.105163 -1.081899 8.410023 0.000000 0.000000 0.000000 -0.904371 9.526497 -27.250682 25.047165 -36.251867 8.317897 12.114040 8.819819 -5.403397 0.000000 0.000000 0.000000 -7.125000 0.000000 0.000000 -12.097162 35.289038 -2.940037 0.000000 0.000000 0.000000 -2.939785 7.021011 14.900376 -17.204694 -27.126830 -4.180281 -20.490266 7.185397 8.641743 0.000000 0.000000 0.000000 7.125000 0.000000 0.000000 5.560275 39.138266 0.805981
1.011779 17.820026 -16.050735 178.235419 -4.387762 -172.843050 0.000000 0.000000 0.000000 -20.564681 -13.138188 -15.154538 4.282273 12.526892 37.622144 1.420071 -8.827645 -21.346410 0.260692 3.284898 9.072864 0.000000 0.000000 0.000000 22.615165 6.163519 -12.548543 -2.993329 -10.684248 31.222265 -1.148474 -5.781408 -23.102087 -0.088040 1.914247 -5.268854 -1.361639 -1.245034 1.053423 2.241936 -1.806303 -4.280761 3.187271 -0.873106 -4.901402 -2.415233 -1.552526 -17.002529 -0.221163 -1.687948 17.923451 0.105290 -1.079298 8.401268 0.000000 0.000000 0.000000 -0.946114 9.510891 -27.180645 24.867696 -36.068401 8.211890 12.056120 8.916056 -5.387791 0.000000 0.000000 0.000000 -7.125000 0.000000 0.000000 -12.141887 35.270514 -2.956912 0.000000 0.000000 0.000000 -2.975755 6.949832 14.953728 -17.263883 -27.204289 -4.207242 -20.529598 7.131791 8.687229 0.000000 0.000000 0.000000 7.125000 0.000000 0.000000 5.532425 39.189398 0.794942
1.009373 17.818376 -16.056591 178.244204 -4.336529 -172.803669 0.000000 0.000000 0.000000 -20.565345 -13.124660 -15.169763 4.281438 12.525804 37.618343 1.428201 -8.802420 -21.406023 0.263830 3.304189 9.126835 0.000000 0.000000 0.000000 22.605317 6.161273 -12.570868 -2.992714 -10.683262 31.218994 -1.154936 -5.713608 -23.112972 -0.089489 1.929829 -5.311788 -1.364185 -1.246765 1.051618 2.239690 -1.809161 -4.285202 3.186597 -0.874589 -4.904881 -2.359611 -1.707274 -17.004448 -0.253439 -1.646471 17.889440 0.105827 -0.954170 8.389935 0.000000 0.000000 0.000000 -0.989732 9.494758 -27.100178 24.685590 -35.880541 8.105063 11.999138 9.015340 -5.390702 0.000000 0.000000 0.000000 -7.125000 0.000000 0.000000 -12.188897 35.270565 -2.968806 0.000000 0.000000 0.000000 -3.009791 6.881818 15.004151 -17.323013 -27.281572 -4.234321 -20.566469 7.080294 8.723339 0.000000 0.000000 0.000000 7.125000 0.000000 0.000000 5.505396 39.230451 0.785486
1.006963 17.816749 -16.062339 178.253085 -4.286474 -172.764998 0.000000 0.000000 0.000000 -20.566197 -13.110908 -15.185011 4.280658 12.524791 37.614754 1.436299 -8.776887 -21.465416 0.267024 3.323930 9.182013 0.000000 0.000000 0.000000 22.595550 6.158202 -12.592959 -2.992036 -10.682159 31.215346 -1.161778 -5.643758 -23.126030 -0.090488 1.940459 -5.341058 -1.366527 -1.248263 1.050698 2.237385 -1.811627 -4.288959 3.185725 -0.875831 -4.908192 -2.317594 -1.816127 -17.008507 -0.275222 -1.618302 17.856400 0.105936 -0.866341 8.379359 0.000000 0.000000 0.000000 -1.034211 9.477831 -27.014155 24.504082 -35.692537 7.998895 11.941947 9.115757 -5.401401 0.000000 0.000000 0.000000 -7.125000 0.000000 0.000000 -12.237395 35.278387 -2.978702 0.000000 0.000000 0.000000 -3.043161 6.813690 15.054860 -17.382248 -27.358885 -4.261498 -20.602696 7.028796 8.756228 0.000000 0.000000 0.000000 7.125000 0.000000 0.000000 5.478501 39.268071 0.776535
1.004552 17.815163 -16.067922 178.261967 -4.238324 -172.727569 0.000000 0.000000 0.000000 -20.567339 -13.096824 -15.200300 4.279960 12.523903 37.611455 1.444355 -8.750940 -21.524478 0.270259 3.344167 9.238473 0.000000 0.000000 0.000000 22.585908 6.153888 -12.614718 -2.991274 -10.680890 31.211159 -1.169201 -5.570803 -23.142524 -0.090742 1.942934 -5.347846 -1.368621 -1.249595 1.051269 2.235037 -1.813721 -4.291434 3.184647 -0.876782 -4.911046 -2.308079 -1.814478 -17.017452 -0.271542 -1.621474 17.825886 0.105174 -0.867610 8.370604 0.000000 0.000000 0.000000 -1.080014 9.459497 -26.919314 24.324105 -35.504948 7.894094 11.884217 9.217831 -5.423858 0.000000 0.000000 0.000000 -7.125000 0.000000 0.000000 -12.288337 35.297927 -2.985617 0.000000 0.000000 0.000000 -3.075578 6.744859 15.106563 -17.441691 -27.436280 -4.288840 -20.638095 6.976966 8.784522 0.000000 0.000000 0.000000 7.125000 0.000000 0.000000 5.451729 39.300806 0.768288
1.002043 17.813675 -16.073260 178.273294 -4.191935 -172.691119 0.000000 0.000000 0.000000 -20.566377 -13.083572 -15.215637 4.279311 12.523113 37.608548 1.452412 -8.723967 -21.583148 0.273690 3.365284 9.297380 0.000000 0.000000 0.000000 22.578760 6.148498 -12.636527 -2.990366 -10.679426 31.206238 -1.177259 -5.494522 -23.162442 -0.090311 1.938070 -5.334481 -1.367535 -1.249655 1.052574 2.232788 -1.813955 -4.292685 3.181808 -0.877000 -4.913119 -2.300373 -1.813464 -17.027571 -0.265662 -1.625624 17.794589 0.105293 -0.869221 8.361801 0.000000 0.000000 0.000000 -1.126746 9.440381 -26.816890 24.146183 -35.318141 7.791054 11.827857 9.323181 -5.458593 0.000000 0.000000 0.000000 -7.125000 0.000000 0.000000 -12.340306 35.329694 -2.988961 0.000000 0.000000 0.000000 -3.106283 6.675391 15.156162 -17.500106 -27.512258 -4.315840 -20.668065 6.927729 8.814137 0.000000 0.000000 0.000000 7.125000 0.000000 0.000000 5.429752 39.334518 0.760677
0.999506 17.812216 -16.078464 178.285841 -4.146463 -172.655082 0.000000 0.000000 0.000000 -20.564223 -13.070852 -15.231039 4.278701 12.522364 37.605818 1.460444 -8.696564 -21.641530 0.277241 3.386947 9.357853 0.000000 0.000000 0.000000 22.572995 6.142973 -12.658300 -2.989390 -10.677854 31.200963 -1.185210 -5.418649 -23.181783 -0.089837 1.932869 -5.320197 -1.364875 -1.249005 1.054245 2.230654 -1.813156 -4.293425 3.178136 -0.876778 -4.914958 -2.293179 -1.812998 -17.038458 -0.259609 -1.630411 17.763628 0.105452 -0.871144 8.353255 0.000000 0.000000 0.000000 -1.173828 9.420661 -26.710598 23.969118 -35.131468 7.688833 11.770372 9.431568 -5.501644 0.000000 0.000000 0.000000 -7.125000 0.000000 0.000000 -12.394667 35.369677 -2.990306 0.000000 0.000000 0.000000 -3.136122 6.606217 15.204853 -17.557994 -27.587480 -4.342639 -20.696558 6.878879 8.842117 0.000000 0.000000 0.000000 7.125000 0.000000 0.000000 5.408827 39.366384 0.753489
0.996968 17.810757 -16.083412 178.300432 -4.102627 -172.619556 0.000000 0.000000 0.000000 -20.559719 -13.059306 -15.246645 4.278194 12.521666 37.603344 1.468374 -8.668651 -21.699196 0.281048 3.409785 9.421799 0.000000 0.000000 0.000000 22.569886 6.138216 -12.679870 -2.988312 -10.676078 31.195127 -1.191934 -5.348549 -23.194534 -0.090027 1.935280 -5.326858 -1.359609 -1.246975 1.056529 2.228878 -1.810365 -4.293552 3.173188 -0.875636 -4.916798 -2.285884 -1.814013 -17.051083 -0.255549 -1.636628 17.735017 0.104690 -0.873935 8.345832 0.000000 0.000000 0.000000 -1.221217 9.399409 -26.597613 23.793074 -34.944386 7.587838 11.706552 9.548486 -5.564005 0.000000 0.000000 0.000000 -7.125000 0.000000 0.000000 -12.457662 35.428612 -2.987768 0.000000 0.000000 0.000000 -3.164479 6.539035 15.252369 -17.614962 -27.661323 -4.369030 -20.725613 6.828445 8.861720 0.000000 0.000000 0.000000 7.125000 0.000000 0.000000 5.386369 39.389413 0.747272
0.994352 17.809376 -16.088242 178.317770 -4.060125 -172.584030 0.000000 0.000000 0.000000 -20.552233 -13.048191 -15.262918 4.277725 12.521086 37.601262 1.476147 -8.641562 -21.755646 0.285129 3.434193 9.490061 0.000000 0.000000 0.000000 22.569759 6.133811 -12.701439 -2.987115 -10.674145 31.188663 -1.197599 -5.283117 -23.201715 -0.090924 1.944753 -5.353057 -1.351715 -1.244435 1.060499 2.228043 -1.806750 -4.293247 3.167848 -0.874141 -4.919226 -2.280040 -1.815067 -17.065355 -0.250822 -1.642570 17.706681 0.104439 -0.876609 8.338841 0.000000 0.000000 0.000000 -1.269901 9.376156 -26.478154 23.617620 -34.756952 7.487627 11.641085 9.669524 -5.634604 0.000000 0.000000 0.000000 -7.125000 0.000000 0.000000 -12.523482 35.495550 -2.983269 0.000000 0.000000 0.000000 -3.192758 6.473540 15.302278 -17.671617 -27.734617 -4.395381 -20.754982 6.776284 8.877713 0.000000 0.000000 0.000000 7.125000 0.000000 0.000000 5.363166 39.408675 0.741487
0.991688 17.808049 -16.092990 178.336962 -4.018573 -172.548558 0.000000 0.000000 0.000000 -20.542712 -13.037309 -15.279645 4.277289 12.520587 37.599447 1.483813 -8.615170 -21.811270 0.289395 3.459643 9.561195 0.000000 0.000000 0.000000 22.571656 6.129586 -12.722997 -2.985839 -10.672101 31.181771 -1.202558 -5.220844 -23.205204 -0.092288 1.958943 -5.392304 -1.342007 -1.241524 1.065572 2.227821 -1.802544 -4.292689 3.162182 -0.872396 -4.922076 -2.275198 -1.816220 -17.080566 -0.245630 -1.648431 17.678530 0.104529 -0.879252 8.332109 0.000000 0.000000 0.000000 -1.319383 9.351642 -26.354486 23.442525 -34.569219 7.387930 11.574977 9.793165 -5.710220 0.000000 0.000000 0.000000 -7.125000 0.000000 0.000000 -12.590735 35.567376 -2.977482 0.000000 0.000000 0.000000 -3.220933 6.409294 15.353701 -17.728027 -27.807500 -4.421684 -20.784593 6.722976 8.891303 0.000000 0.000000 0.000000 7.125000 0.000000 0.000000 5.339432 39.425432 0.735981
0.989023 17.806844 -16.097494 178.359800 -3.979939 -172.514301 0.000000 0.000000 0.000000 -20.528756 -13.025636 -15.297345 4.277036 12.520269 37.598178 1.491235 -8.593094 -21.865194 0.294026 3.486795 9.637068 0.000000 0.000000 0.000000 22.577747 6.124511 -12.744313 -2.984379 -10.669754 31.173968 -1.206301 -5.164891 -23.202920 -0.094382 1.981337 -5.454157 -1.327924 -1.237337 1.072043 2.228329 -1.796453 -4.292436 3.154633 -0.869922 -4.926263 -2.272788 -1.819075 -17.094015 -0.239223 -1.656298 17.650744 0.105227 -0.882868 8.325194 0.000000 0.000000 0.000000 -1.368866 9.326520 -26.225895 23.267370 -34.379663 7.288902 11.517438 9.918203 -5.784317 0.000000 0.000000 0.000000 -7.125000 0.000000 0.000000 -12.650939 35.638047 -2.969933 0.000000 0.000000 0.000000 -3.247831 6.349789 15.405975 -17.783282 -27.878742 -4.447441 -20.815297 6.667784 8.900883 0.000000 0.000000 0.000000 7.125000 0.000000 0.000000 5.314056 39.438056 0.730779
